<?xml version="1.0" encoding="utf-8"?>
<!-- Generator: Adobe Illustrator 24.1.1, SVG Export Plug-In . SVG Version: 6.00 Build 0)  -->
<svg version="1.1" id="Layer_1" xmlns="http://www.w3.org/2000/svg" xmlns:xlink="http://www.w3.org/1999/xlink" x="0px" y="0px"
	 viewBox="0 0 595.3 841.9" style="enable-background:new 0 0 595.3 841.9;" xml:space="preserve">
<style type="text/css">
	.st0{fill:#231F20;}
</style>
<image style="display:none;overflow:visible;opacity:0.39;enable-background:new    ;" width="1238" height="826" xlink:href="FB875D4D.jpg"  transform="matrix(0.9991 0 0 0.9991 -1670.3732 780.2646)">
</image>
<path class="st0" d="M297.6,170C158,170,44.3,283.6,44.3,423.3S158,676.6,297.6,676.6S550.9,563,550.9,423.3
	C550.9,281.3,439.7,170,297.6,170z M297.6,666C163.8,666,54.9,557.2,54.9,423.3c0-133.8,108.9-242.7,242.7-242.7
	c136.1,0,242.7,106.6,242.7,242.7C540.4,557.2,431.5,666,297.6,666z"/>
<g>
	<path class="st0" d="M414.5,399c-0.1,0.4-0.2,0.7-0.3,1.1c0-0.1,0.1-0.2,0.1-0.3c0.1-0.4,0.2-0.7,0.3-1.1c0.1-0.3,0.1-0.6,0.2-0.8
		C414.7,398.2,414.6,398.6,414.5,399z M414.5,399c-0.1,0.4-0.2,0.7-0.3,1.1c0-0.1,0.1-0.2,0.1-0.3c0.1-0.4,0.2-0.7,0.3-1.1
		c0.1-0.3,0.1-0.6,0.2-0.8C414.7,398.2,414.6,398.6,414.5,399z M414.5,399c-0.1,0.4-0.2,0.7-0.3,1.1c0-0.1,0.1-0.2,0.1-0.3
		c0.1-0.4,0.2-0.7,0.3-1.1c0.1-0.3,0.1-0.6,0.2-0.8C414.7,398.2,414.6,398.6,414.5,399z M414.5,399c-0.1,0.4-0.2,0.7-0.3,1.1
		c0-0.1,0.1-0.2,0.1-0.3c0.1-0.4,0.2-0.7,0.3-1.1c0.1-0.3,0.1-0.6,0.2-0.8C414.7,398.2,414.6,398.6,414.5,399z M414.5,399
		c-0.1,0.4-0.2,0.7-0.3,1.1c0-0.1,0.1-0.2,0.1-0.3c0.1-0.4,0.2-0.7,0.3-1.1c0.1-0.3,0.1-0.6,0.2-0.8
		C414.7,398.2,414.6,398.6,414.5,399z M414.5,399c-0.1,0.4-0.2,0.7-0.3,1.1c0-0.1,0.1-0.2,0.1-0.3c0.1-0.4,0.2-0.7,0.3-1.1
		c0.1-0.3,0.1-0.6,0.2-0.8C414.7,398.2,414.6,398.6,414.5,399z M414.5,399c-0.1,0.4-0.2,0.7-0.3,1.1c0-0.1,0.1-0.2,0.1-0.3
		c0.1-0.4,0.2-0.7,0.3-1.1c0.1-0.3,0.1-0.6,0.2-0.8C414.7,398.2,414.6,398.6,414.5,399z M414.5,399c-0.1,0.4-0.2,0.7-0.3,1.1
		c0-0.1,0.1-0.2,0.1-0.3c0.1-0.4,0.2-0.7,0.3-1.1c0.1-0.3,0.1-0.6,0.2-0.8C414.7,398.2,414.6,398.6,414.5,399z M414.5,399
		c-0.1,0.4-0.2,0.7-0.3,1.1c0-0.1,0.1-0.2,0.1-0.3c0.1-0.4,0.2-0.7,0.3-1.1c0.1-0.3,0.1-0.6,0.2-0.8
		C414.7,398.2,414.6,398.6,414.5,399z M414.5,399c-0.1,0.4-0.2,0.7-0.3,1.1c0-0.1,0.1-0.2,0.1-0.3c0.1-0.4,0.2-0.7,0.3-1.1
		c0.1-0.3,0.1-0.6,0.2-0.8C414.7,398.2,414.6,398.6,414.5,399z M414.5,399c-0.1,0.4-0.2,0.7-0.3,1.1c0-0.1,0.1-0.2,0.1-0.3
		c0.1-0.4,0.2-0.7,0.3-1.1c0.1-0.3,0.1-0.6,0.2-0.8C414.7,398.2,414.6,398.6,414.5,399z M414.5,399c-0.1,0.4-0.2,0.7-0.3,1.1
		c0-0.1,0.1-0.2,0.1-0.3c0.1-0.4,0.2-0.7,0.3-1.1c0.1-0.3,0.1-0.6,0.2-0.8C414.7,398.2,414.6,398.6,414.5,399z M414.5,399
		c-0.1,0.4-0.2,0.7-0.3,1.1c0-0.1,0.1-0.2,0.1-0.3c0.1-0.4,0.2-0.7,0.3-1.1c0.1-0.3,0.1-0.6,0.2-0.8
		C414.7,398.2,414.6,398.6,414.5,399z M414.5,399c-0.1,0.4-0.2,0.7-0.3,1.1c0-0.1,0.1-0.2,0.1-0.3c0.1-0.4,0.2-0.7,0.3-1.1
		c0.1-0.3,0.1-0.6,0.2-0.8C414.7,398.2,414.6,398.6,414.5,399z M414.5,399c-0.1,0.4-0.2,0.7-0.3,1.1c0-0.1,0.1-0.2,0.1-0.3
		c0.1-0.4,0.2-0.7,0.3-1.1c0.1-0.3,0.1-0.6,0.2-0.8C414.7,398.2,414.6,398.6,414.5,399z M414.5,399c-0.1,0.4-0.2,0.7-0.3,1.1
		c0-0.1,0.1-0.2,0.1-0.3c0.1-0.4,0.2-0.7,0.3-1.1c0.1-0.3,0.1-0.6,0.2-0.8C414.7,398.2,414.6,398.6,414.5,399z M414.5,399
		c-0.1,0.4-0.2,0.7-0.3,1.1c0-0.1,0.1-0.2,0.1-0.3c0.1-0.4,0.2-0.7,0.3-1.1c0.1-0.3,0.1-0.6,0.2-0.8
		C414.7,398.2,414.6,398.6,414.5,399z M414.5,399c-0.1,0.4-0.2,0.7-0.3,1.1c0-0.1,0.1-0.2,0.1-0.3c0.1-0.4,0.2-0.7,0.3-1.1
		c0.1-0.3,0.1-0.6,0.2-0.8C414.7,398.2,414.6,398.6,414.5,399z M414.5,399c-0.1,0.4-0.2,0.7-0.3,1.1c0-0.1,0.1-0.2,0.1-0.3
		c0.1-0.4,0.2-0.7,0.3-1.1c0.1-0.3,0.1-0.6,0.2-0.8C414.7,398.2,414.6,398.6,414.5,399z M414.5,399c-0.1,0.4-0.2,0.7-0.3,1.1
		c0-0.1,0.1-0.2,0.1-0.3c0.1-0.4,0.2-0.7,0.3-1.1c0.1-0.3,0.1-0.6,0.2-0.8C414.7,398.2,414.6,398.6,414.5,399z M414.5,399
		c-0.1,0.4-0.2,0.7-0.3,1.1c0-0.1,0.1-0.2,0.1-0.3c0.1-0.4,0.2-0.7,0.3-1.1c0.1-0.3,0.1-0.6,0.2-0.8
		C414.7,398.2,414.6,398.6,414.5,399z M414.5,399c-0.1,0.4-0.2,0.7-0.3,1.1c0-0.1,0.1-0.2,0.1-0.3c0.1-0.4,0.2-0.7,0.3-1.1
		c0.1-0.3,0.1-0.6,0.2-0.8C414.7,398.2,414.6,398.6,414.5,399z M414.5,399c-0.1,0.4-0.2,0.7-0.3,1.1c0-0.1,0.1-0.2,0.1-0.3
		c0.1-0.4,0.2-0.7,0.3-1.1c0.1-0.3,0.1-0.6,0.2-0.8C414.7,398.2,414.6,398.6,414.5,399z"/>
</g>
<path class="st0" d="M189.8,430.5l-0.1-0.1l-0.3-1C189.5,429.8,189.7,430.2,189.8,430.5z"/>
<path class="st0" d="M302.5,461c0.1,0,0.2-0.1,0.3-0.1C302.7,460.9,302.6,460.9,302.5,461z"/>
<path class="st0" d="M330.9,507.6L330.9,507.6L330.9,507.6L330.9,507.6z"/>
<path class="st0" d="M302.5,461c0.1,0,0.2-0.1,0.3-0.1C302.7,460.9,302.6,460.9,302.5,461z"/>
<polygon class="st0" points="200.7,272.8 200.7,272.9 200.5,272.6 "/>
<path class="st0" d="M260.5,513.9C260.5,513.9,260.5,514,260.5,513.9C260.5,514,260.5,513.9,260.5,513.9z"/>
<g>
	<path class="st0" d="M413.9,400.9c0,0.1-0.1,0.2-0.1,0.3c0.1-0.3,0.3-0.6,0.4-1C414.1,400.5,414,400.7,413.9,400.9z M413.2,402.7
		c-0.9,2-1.9,4.1-2.7,6.3c0.8-2.1,1.7-4.1,2.6-6c0.2-0.4,0.4-0.8,0.5-1.2C413.5,402.1,413.3,402.4,413.2,402.7z M401.3,419.9
		c0.2-1.2,0.3-2.3,0.4-3.5C401.6,417.5,401.4,418.7,401.3,419.9z M398,431.5c0.4-0.8,0.7-1.7,1-2.5
		C398.7,429.8,398.4,430.7,398,431.5z M302.5,461c0.1,0,0.2-0.1,0.3-0.1C302.7,460.9,302.6,460.9,302.5,461z"/>
	<path class="st0" d="M242.3,506.5L242.3,506.5c0,0,0.1-0.1,0.1-0.2C242.4,506.4,242.3,506.5,242.3,506.5z M248.6,498.1
		c-1.2,1.8-3.5,5.3-6.2,8.3c0,0.1-0.1,0.1-0.1,0.2v0.1C245.2,503.4,247.6,499.8,248.6,498.1C248.7,498,248.7,498.1,248.6,498.1z
		 M200.5,272.6l0.2,0.3v-0.1L200.5,272.6z"/>
	<path class="st0" d="M413.1,381.8c0,0-0.1,0-0.2,0c0.5-2.6,0.9-5.5,2-9.3c11.1-34.8,8-66.7-3.2-98.3c-2-5.7-4.3-11-6.7-15.3
		c-3.9-6.8-24.8-22.9-30.6-28.3c0,0,0,0-0.1,0c-6.3-3.8-11.9-9.1-19.7-9.7c-2.2-0.2-5.7-1.2-7.7-2.3c-3.5-1.8-7.1-3.4-10.8-5
		c-7.2-3.2-23.4-4.5-23.6-4.5c-9.3-0.5-31.8-0.1-31.8-0.1c-1.7,0-39.9,9.3-41.6,9.7c-13.1,2.8-26.7,22.1-25.4,22.2
		c2.4,0.2,10.6-8,26.4-10.1c14.6-1.9,70.1,9.5,62.9,9.4c-1,0-49.9-5.9-64-3.9c-31.6,4.6-39.9,16.7-39.2,18.5
		c0.5,1.2,3.7,6.1,13.1,4.1c2.8-0.6,4.1-1.5,19.7-4.2c13.2-2.3,28.9-3.9,32.7-0.3c0.3,0.3,0.1,0.8-0.3,0.8c-3.9,0.1-20.5-1.5-52,7.3
		c-0.5,0.1-3.8-0.4-3.5,0.1c3.9,6.9,11.1,5.6,11.2,5.6c6.2-0.8,7.8-0.8,5,0.4c-5.4,2.4-9,2.8-16-0.7c-5.1-2.6-8.3-9.8-13.3-9.4
		c-3.9,0.4-9.1,2.2-13.6,6.2c-36.3,25.7-16.6,90.1-14.6,94.8c3.2,7.8,4.6,15.8,6.2,23.9c0,0.2,0,0.5-0.1,0.8
		c-0.1,0.7-0.2,1.3-0.3,1.8h-0.2c-2.1,0-4.3,2.1-5.1,3.6c-2.4,4.7-2.7,9.1-0.8,13.1c6.6,13.9,11,25,14.3,36.1
		c2.4,8,7,16.5,13.4,24.6c0.1,0.1,0.4,0.4,0.8,0.6c0.4,0.2,0.8,0.2,0.9,0.2c0.3,0,0.5,0,0.8-0.1c3.3,14.7,10.5,45.2,12.8,49.4
		c45.7,78,79.7,80,84,80c22.7,0,42.8,0,88.6-85.9c5.3-11.6,9.1-34.7,10.3-45.5c0.3,0,0.7-0.1,1.1-0.2c0.8-0.3,1.3-0.8,1.5-1.1
		c6-8.5,10.1-17.4,11.9-25.6c2.5-11.3,6.2-22.8,11.9-37.1c1.6-4.3,1-8.7-1.9-13.2C417.5,383.6,415.2,381.8,413.1,381.8z
		 M200.7,272.8v0.1l-0.2-0.3L200.7,272.8z M197.5,461.9c-0.2,0.1-0.4,0.1-0.5,0.1c-5.7-7.2-10.5-15.5-13-23.9
		c-3.8-12.7-8.8-24.7-14.4-36.5c-1.8-3.9-1-7.7,0.8-11.2c0.5-1,2.1-2.4,3.2-2.4h0.2c0,0,0.1,0,0.1,0.1c0.3,0.2,0.3,0.5,0.4,0.5
		c0,0.1,0.1,0.2,0.1,0.3c0.1,0.2,0.1,0.3,0.2,0.5c0.1,0.2,0.1,0.4,0.3,0.5c0,0.1,0.1,0.2,0.1,0.2c0.5,0.9,1.2,1.7,1.9,2.6
		c1,1.5,2,3,1.6,5.1v0.3c-0.8-0.3-1.6-0.5-2.4-0.8s-1.5-0.9-2.2-0.9c-0.3,0-0.7,0.1-1,0.4c-1.4,1-0.9,2.4-0.6,3.8
		c1.2,6.2,5.6,10.7,7.2,17.8c2.5-3.9,0.3-9.1,3.7-11.3c0,0,0,0,0,0c0,0,0,0,0,0c0,0-0.1,0-0.1,0.1c0.5,1.3,0.9,2.5,1.3,3.9
		c0.7,2.7,1.5,5.8,2.3,9l0,0l2.6,9.4c0.1,0.3,0.3,0.7,0.4,1h0c0,0,0,0,0,0c0,0,0,0,0,0l-0.1-0.1l-0.3-1c2.5,9.6,5.2,19.7,7.2,27.1
		c0.1,0.5,0.5,2.4,1.2,5.2C197.7,461.8,197.6,461.9,197.5,461.9z M335,512.9c0,1.9-0.4,3.6-0.7,4.1c-2.6,3.3-6.8,9.4-9.7,10.8
		c-7.3,3.5-24.3,12.7-32.5,11c-0.8-0.2-25.8-3.3-32.1-17.4c-0.1-0.2-0.2-0.5-0.3-0.7c-0.1-0.2-0.2-0.5-0.3-0.7
		c-0.3-0.5-0.6-1.1-0.9-1.6c-0.9-1.5-1-6-0.5-8.9c0.2-1.1,1.4-1.7,2.4-1.2c0.5,0.3,1.1,0.6,1.7,0.9c0.4,0.2,0.8,0.4,1.1,0.7
		c5.9,3.3,16.9,9.3,30.3,9.5c18.8,0.4,22.3-4,31.2-8.3c0.8-0.4,3-1.3,5.1-2.1C332.5,508,335.3,510.1,335,512.9z M263.2,500.6
		c0.9-0.4,3.1-1,4.2-1.2c0.4-0.1,0.8-0.1,1.3-0.1c12,0.6,24.1,1.4,36.1,1.4c3,0,6.1-0.1,9.1-0.2c4-0.1,8-0.5,11.7,0.8v0.5
		c-0.1,0.8-0.6,1.2-1.1,1.2c-0.1,0-0.1,0-0.2,0c-10.8-1.7-21.5,0.8-32.3,1.1c-4.2,0.1-8.5-0.5-12.7-1.2c-4.4-0.8-8.7-1.3-13.1,0.3
		c-1.6,0.5-3.1,1-3.9,0C261.8,502.3,262.2,501,263.2,500.6z M337.1,503.8c-2.4,1-3.3-0.4-4.6-2.2c-0.1-0.2-0.2-0.3-0.3-0.4
		c-0.1-0.2-0.3-0.3-0.4-0.4c-0.1-0.1-0.3-0.2-0.4-0.3c-0.3-0.2-0.6-0.4-0.9-0.5c-0.2-0.1-0.3-0.2-0.5-0.2c-1.6-0.5-3.6-0.5-5.2-0.6
		c-5.2-0.4-10.2-1.4-15.2-2.8c-4.2-1.2-8.3-1.9-12.4-1.2c-0.3,0-0.5,0.1-0.8,0.1c0,0-0.1,0-0.2,0c-1.1,0.3-5.3,2.2-6.4,1.7
		c-0.8-0.4-6-1.8-6.9-1.6l-3,0.2c-5.4,1.4-8.2,1.9-12.9,3.1c-0.1,0.1-5,1.6-6.9,2.2c-1.9,0.5-5.1,1.5-6.1-0.6c0.7-1,11.8-4.2,14-4.4
		c2.2-0.2,13.6-3.3,15.4-2.8c1.8,0.5,5.1,2.1,7.3,1.8c2.1-0.3,8.1-2,11-1.8c2.9,0.2,17.2,3.7,20.4,4.3c3.2,0.6,11.8,0.5,13.6,1.2
		c0.8,0.3,1.7,0.7,2.5,0.9C339.1,500.6,339.9,502.6,337.1,503.8z M302.5,461c0.1-0.1,0.2-0.1,0.3-0.1
		C302.7,460.9,302.6,461,302.5,461z M392.3,436c-0.3,1.3-5.2,25-6.2,33.5c-0.6,4.2-24,43.3-28,45c-0.3,0.1-0.7,0.3-1,0.4
		c-1.7,0.5-4.4,0.1-4.5,0.1c-0.4-0.1-0.5,0.1-1.6-1.1c-0.3-0.3-3.9-12.9-7.7-16.9c-5.6-5.8-13.1-11.8-18.5-15.4
		c-3.7-3-7.7-5.8-11.3-7.7c0.2-1.5,0.4-3.1,0.5-4.7c0.8-6.7-3.2-10.4-9-9.1c-0.4,0.1-0.8,0.2-1.2,0.4c-0.2,0.1-0.5,0.1-0.6,0.2
		c-0.1,0-0.2,0.1-0.3,0.1c-0.1,0-0.2,0.1-0.3,0.1c-0.1,0-0.2,0.1-0.3,0.1c-0.1,0-0.2,0.1-0.3,0.1c-0.2,0.1-0.3,0.2-0.5,0.3
		c-0.3,0.2-0.7,0.4-1.1,0.6c-0.7,0.4-1.3,0.9-1.8,1.5c-0.5,0.5-1,1-1.5,1.4c-0.4,0.3-0.8,0.5-1.1,0.7c-0.1,0.1-0.3,0.1-0.4,0.2
		c-1.2,0.6-2.4,0.8-3.6,0.7h-0.4c-0.3,0-0.6-0.1-0.9-0.1c-0.2,0-0.3-0.1-0.5-0.1c-0.3-0.1-0.6-0.2-0.9-0.3c-0.2-0.1-0.3-0.1-0.5-0.2
		c-0.3-0.1-0.5-0.2-0.7-0.3c-0.3-0.1-0.5-0.2-0.8-0.4c-0.2-0.1-0.4-0.2-0.6-0.3c-0.1,0-0.1-0.1-0.2-0.1c-0.4-0.2-0.8-0.5-1.3-0.7
		c-0.4-0.3-0.8-0.5-1.3-0.7c-0.2-0.1-0.3-0.2-0.5-0.3c-0.3-0.2-0.7-0.3-1-0.5c-0.5-0.3-1.1-0.5-1.6-0.6c-0.2-0.1-0.4-0.1-0.5-0.2
		c-1.8-0.5-3.6-0.5-5.7,0.4c-0.1,0-0.3,0.1-0.4,0.2h-0.1c-0.5,0.3-1.1,0.1-1.7-0.3c-0.1-0.1-0.3-0.2-0.4-0.3c-0.1,0-0.1-0.1-0.2-0.2
		c-0.1-0.1-0.2-0.2-0.2-0.3c-1.9-2-3.6-6.1-3.1-8.9c0.5-3.4,2.2-6.3,4.4-9c1.1-1.4,2.6-3.3,0.6-4.5c-1.7-1-3.3,0.9-4.1,2.5
		c-1.9,3.8-3.6,7.7-5.4,11.6c-1.7,3.6-0.6,6.4,2,9.2c2.1,2.2,4.5,3.6,6.2,4.7c0.1,0.1,0.3,0.2,0.5,0.3c2.2,0.9,6.2-0.8,5.5,0.8
		c1.1,0.2,1,0.8-2.1,2.6c-3.1,1.8-13.1,9.5-17.4,13.9l-0.1,0.1c-2.2,1.7-4.5,5.1-9.6,13c0,0.1-0.1,0.2-0.2,0.3
		c-0.1,0.1-0.1,0.2-0.2,0.3c0,0,0.1-0.1,0.1-0.1c-1.1,1.8-3.5,5.4-6.4,8.6c0,0-0.1,0.1-0.1,0.1c-2.8,3-5.9,5.3-8.9,5
		c-5.5-0.7-7.5-3.6-16.6-20c-2.8-5-5.8-10-13.8-39.6c-3.6-13.5-10.2-28.3-14.5-56.7c-1.8-12.3,0.9-22.7,2.5-28.3
		c3.4-11.9,9-32.1,10.6-36.4c3.2-8.2,16.5-22.9,20.3-27.1c0,0,0.1-0.3,0.3-0.6c0,0,0,0,0-0.1c1.1-3.1,5.2-16.4,5.3-16.5
		c5.2-9.2,40.6,22.3,54.4,25.2c21.6,4.5,40.1-2.6,61.1,7.5c29.1,14,28.9,23,35,27.2c0.3,0.3,0.7,0.5,1.1,0.8
		c1.1,0.8,2.1,1.6,3.1,2.5c0.4,0.3,0.7,0.6,1,0.9c0.3,0.3,0.6,0.6,0.9,0.9c8,7.9,12.1,18,12.4,29.6c0.1,12.7-1,25.4-1.8,38.1
		c-0.3,5.6-1.5,11.1-2.3,16.7V436z M418.1,397.2c-4.9,12.2-9.1,24.5-12,37.5c-1.8,8.3-5.9,16.6-11,24c0,0,0,0,0,0
		c-0.3,0.3-0.7,0.4-1,0.4c-0.2,0-0.4,0-0.5-0.1c-0.4-0.2-0.5-0.6-0.5-0.9c0,0,0,0,0,0c0.1-0.3,0.3-0.6,0.3-0.9
		c2.5-6.4,1.8-13.3,3-19.8c0.1-0.5,0.2-1,0.3-1.5c0.2-0.7,0.3-1.4,0.6-2.1c0.2-0.5,0.3-1,0.5-1.5c0.1-0.3,0.2-0.5,0.3-0.8
		c0.4-0.8,0.7-1.7,1-2.5c0,0,0,0,0,0c0.5-1.4,0.9-2.8,1.3-4.2c0.1-0.4,0.2-0.9,0.3-1.3c0.3-1.2,0.5-2.3,0.7-3.5
		c0.2-1.2,0.3-2.3,0.4-3.5c0.1-0.8,0.1-1.6,0.2-2.4c0.1-0.7,0.1-1.5,0.1-2.2c0-0.3,0-0.7,0.1-1c0.5-1,0.9-2,1.3-3c0.5-1,0.9-2,1.3-3
		c0.3,0.1,0.5,0.2,0.7,0.4c0.2,0.1,0.4,0.3,0.6,0.4c2.2,2,0.8,5.5,2.4,8.6c0,0,0.1,0.1,0.1,0.1c0,0,0.2,0.1,0.3,0.1
		c0.1,0,0.2-0.1,0.2-0.2c0.1-0.2,0.1-0.3,0.2-0.7c0-0.1,0-0.2,0.1-0.3c0-0.1,0-0.2,0-0.2c0.1-0.3,0.1-0.5,0.2-0.7
		c0-0.1,0-0.1,0.1-0.2c0-0.1,0-0.1,0-0.2c0.1-0.3,0.1-0.5,0.2-0.8c0.2-0.7,0.4-1.3,0.6-1.9c0.8-2.2,1.8-4.3,2.7-6.3
		c0.1-0.3,0.3-0.6,0.4-0.9c0.1-0.2,0.1-0.4,0.2-0.6c0-0.1,0.1-0.2,0.1-0.3c0.1-0.2,0.2-0.4,0.3-0.7c0,0,0-0.1,0-0.1
		c0.1-0.4,0.2-0.7,0.3-1.1s0.2-0.8,0.3-1.1c0-0.1,0.1-0.2,0.1-0.3c0.1-0.4,0.1-0.8,0.2-1.2c0,0,0,0,0,0c0.4-1.3,0.7-2.3,0.1-3.1
		c-0.1-0.1-0.1-0.2-0.2-0.2c-0.1-0.1-0.3-0.3-0.6-0.4c-0.2-0.1-0.3-0.2-0.5-0.2c-0.2,0-0.3-0.1-0.5-0.1c0,0-0.1,0-0.1,0
		c0,0-0.1,0-0.1,0c-0.8,0-1.6,0.6-2.4,1.1c-0.6,0.3-1.2,0.5-1.8,0.8c-0.2,0.1-0.3,0.1-0.5,0.1c-0.1-0.5-0.1-0.9-0.1-1.3V393
		c0.2-0.5,0.4-1.1,0.6-1.7c0.1-0.4,0.3-0.8,0.4-1.1c0.1-0.2,0.2-0.4,0.2-0.7c0.1-0.2,0.2-0.3,0.3-0.5c0.5-0.9,1.1-1.7,1.5-2.7
		c0.2-0.4,0.3-0.8,0.4-1.2c0-0.2,0.1-0.3,0.2-0.4c0-0.1,0.1-0.2,0.2-0.3c0-0.1,0-0.2,0.1-0.3c0.1,0,0.2,0,0.3,0
		c1.1,0,2.8,1.3,3.4,2.2C418.6,389.4,419.7,393.1,418.1,397.2z"/>
</g>
<path class="st0" d="M248.7,498c-1.1,1.8-3.5,5.4-6.4,8.6c0,0-0.1,0.1-0.1,0.1c0,0,0.1-0.1,0.1-0.2c0-0.1,0.1-0.1,0.1-0.2
	c1-1.5,2.5-3.6,4.7-6.3C247.6,499.2,248.1,498.7,248.7,498C248.7,498.1,248.7,498,248.7,498z"/>
<g>
	<path class="st0" d="M273.2,378.7c-5.4-0.8-6.4-4.5-19.9-5.3c-16.2-1-21.6,0-23.5,0c-2.1,0-3.9,0.4-4.9,2.5c-0.6,1.3-0.3,2.6,1,3.1
		c1.9,0.9,3.7,3.3,6.1,0.9c1.2-1.2,2.8-1.5,4.5-1.4c1.9,0.1,3.7,0.9,4.1,2.8c0.4,2.2-1.8,2.3-3.3,2.7c-2.4,0.7-4.9,1.2-7.1,2.2
		c-3.8,1.7-8.7,4.7-8,8.2c0.2,1.1,0.3,2.2,0.3,3.2c-0.1,5,3.3,9.5,8.2,10.3c1.5,0.2,3,0.2,4.6-0.5c2.7-1,4.2-2.8,1.6-3.8
		c-2.4-1-4.3-3.1-5.3-4.4c-0.5-0.7-0.6-1.3-0.4-1.9c1.8-2.4,4.4-5.3,7.2-4.4c1.4,0.4,1.3,1.6,1,2.9c-0.3,0.8-0.5,1.8-0.5,2.7
		c0,4.3,3.5,7.7,7.7,7.7s7.7-3.5,7.7-7.7c0-0.6-0.1-1.2-0.2-1.7c0.3-2.6,4.3-2.6,6.5-1.3c18.1,12.8,0.5,6.1-4.8,8.4
		c-2,0.9-4.9,4.8-3.9,7.2c1.3,2.9,18.7,8.8,21.6,7.7c0.3-0.1,0.8-0.3,0.9-0.5c2-4.2,6.4-7,6.4-12.5c0-4.5-0.8-9.1,1.2-13.6
		C285.3,384.9,281.1,378.9,273.2,378.7z M265.5,394.1c-0.3,0.3-0.9,0.3-1.2,0c-0.1-0.1-7.3-7.2-17.4-7c-6.7,0.2-13.1,3.6-19,10.3
		c-0.2,0.2-0.4,0.3-0.6,0.3c-0.2,0-0.4-0.1-0.6-0.2c-0.3-0.3-0.4-0.8-0.1-1.2c6.3-7,13.1-10.7,20.3-10.8c10.7-0.3,18.3,7.2,18.6,7.5
		C265.8,393.2,265.8,393.7,265.5,394.1z"/>
</g>
<path class="st0" d="M347.3,383.8c-1.1-0.5-2.8-0.6-2.4-2.2c0.3-1.6,2-1,3.2-1.1c4.1-0.1,8.2-0.1,12.3-0.2c1.5-0.1,2.8-0.6,3.2-2.3
	c0.3-1.5-0.2-3.4-1.6-3.5c-3.7-0.3-22.2-5.4-28-3.8c-9.6,2.6-18.9,5.8-28.4,8.7c-3,1-3.5,3.3-3.3,5.9c0.2,2.7,1.6,3.6,4.3,3.3
	c3.4-0.3,2.6,1.7,1.7,3.7c-2.6,5.6-2.9,11.2,1.6,15.8c4.9,5.1,11.9,5.6,18.4,7.3c3.6,1,3.1-2.5,4.6-3.6c1.9-1.3,6.3-0.3,5.6-3.9
	c-0.4-1.7-4.2-2.7-6.5-4.1c-0.3-0.2-0.6-0.3-0.9-0.5c-2.2-1.2-7.3-1.2-6.3-4.2c0.9-2.6,7.3-12.5,8.6-5.5c0.1,0.7-0.3,1.3-0.3,2.1
	c0,4.3,3.5,7.7,7.7,7.7c4.3,0,7.8-3.5,7.8-7.7c0-1-0.6-2.6-0.6-2.8c-0.3-2,3-0.3,3.9,0.2c0.2,0.1,1.2,1.3,1.2,4.9
	c-0.5,1.6-0.6,4.3-0.3,5.5c0.3,2.2,2.2,3,3.4,2.2c3.6-2.4,7.6-2.3,11.7-2.3C363.8,393.2,356.2,387.8,347.3,383.8z M357.8,392.7
	c-0.3,0.4-0.8,0.5-1.2,0.3c-22.2-14.3-34.6,2.5-35.1,3.3c-0.2,0.2-0.4,0.3-0.7,0.3c-0.2,0-0.3,0-0.5-0.2c-0.4-0.3-0.5-0.8-0.2-1.2
	c0.1-0.2,13.9-18.9,37.5-3.7C357.9,391.8,358,392.3,357.8,392.7z"/>
<g id="Layer_2_1_">
</g>
<path class="st0" d="M394.3,458.5L394.3,458.5z"/>
<path class="st0" d="M394.5,462L394.5,462z"/>
<path class="st0" d="M395.7,461.6L395.7,461.6z"/>
<path class="st0" d="M174.3,385.8L174.3,385.8z"/>
<path class="st0" d="M174.2,392.1L174.2,392.1z"/>
<path class="st0" d="M278.2,467.9L278.2,467.9z"/>
<path class="st0" d="M189.8,430.5l-0.1-0.1l-0.3-1C189.5,429.8,189.7,430.2,189.8,430.5z"/>
<path class="st0" d="M409.1,414.7L409.1,414.7z"/>
</svg>
