<?xml version="1.0" encoding="utf-8"?>
<!-- Generator: Adobe Illustrator 24.1.1, SVG Export Plug-In . SVG Version: 6.00 Build 0)  -->
<svg version="1.1" xmlns="http://www.w3.org/2000/svg" xmlns:xlink="http://www.w3.org/1999/xlink" x="0px" y="0px"
	 viewBox="0 0 595.3 841.9" style="enable-background:new 0 0 595.3 841.9;" xml:space="preserve">
<style type="text/css">
	.st0{fill:#231F20;}
</style>
<g id="red">
	
		<image style="display:none;overflow:visible;opacity:0.39;" width="1237" height="825" xlink:href="FB875D4D.jpg"  transform="matrix(1 0 0 1 -1670.45 780.3798)">
	</image>
	<path class="st0" d="M297.6,170C158,170,44.3,283.6,44.3,423.3S158,676.6,297.6,676.6S550.9,563,550.9,423.3
		C550.9,281.3,439.7,170,297.6,170z M297.6,666C163.8,666,54.9,557.2,54.9,423.3c0-133.8,108.9-242.7,242.7-242.7
		c136.1,0,242.7,106.6,242.7,242.7C540.4,557.2,431.5,666,297.6,666z"/>
	<g>
		<path class="st0" d="M418.3,384.9c-0.8-1.3-3.1-3.1-5.2-3.1c0,0-0.1,0-0.2,0c-0.7,0-1.4,0.3-1.9,0.7c-0.4,0.3-0.9,0.9-1.1,1.9
			c-0.2,0.9-0.8,1.8-1.4,2.8c-0.1,0.2-0.3,0.4-0.4,0.6l-0.2,0.2l-0.1,0.3l-0.2,0.3v0.3c-0.4,1.1-0.8,2.2-1.2,3.2l-0.1,0.4v0.4
			c0,0.7,0.1,1.3,0.3,1.9v3l3-1.2c0.2-0.1,0.5-0.2,0.7-0.3c0.6-0.2,1.3-0.5,1.9-0.8c0.2-0.1,0.5-0.3,0.7-0.4
			c0.2-0.1,0.4-0.2,0.5-0.3c0,0.2,0,0.7-0.1,1l-0.1,0.5c-0.3,2.7-1.5,5.3-2.7,8c-0.3,0.8-0.7,1.5-1,2.3c-0.4-1.6-1.4-3.3-3.6-4.2h0
			l-0.1-0.1l-2-1l-0.8,2.1l-2.3,5.1l-0.4,0.9l-0.2,0.4l0,0.5c-0.3,6.7-1,13.7-3.9,20.3c-2,4.5-2.4,9.3-2.7,14
			c-0.3,4-0.6,7.7-1.8,11.3h-0.7v1.8c0,0.1-0.1,0.3-0.1,0.4l-0.1,0.4l0.1,0.4c0.1,0.4,0.3,1.2,1.3,1.8l-0.2,1h3.7l0.7-0.9
			c6-8.5,10.1-17.4,11.9-25.6c2.5-11.3,6.2-22.8,11.9-37.1C421.8,393.8,421.2,389.4,418.3,384.9z M418.1,397.2
			c-4.9,12.2-9.1,24.5-12,37.5c-1.9,8.6-6.2,17.2-11.6,24.8h0c0-0.1,0-0.1,0-0.2c0,0,0-0.1,0-0.2v0c0,0-0.1,0-0.1,0
			c-0.2,0-0.3,0-0.4,0c0,0-0.1,0-0.1,0c-0.1,0-0.2,0-0.3,0c-0.2-0.1-0.4-0.1-0.5-0.3c0,0,0,0,0,0c-0.1-0.1-0.2-0.2-0.2-0.3
			c0-0.1,0.1-0.2,0.1-0.4v0c0.1-0.3,0.3-0.6,0.3-0.9c3.2-8.3,1.1-17.6,4.7-25.7c3-6.8,3.8-13.9,4.1-21.1c0,0,0,0,0-0.1
			c0.5-1,0.9-2,1.3-3c0.5-1,0.9-2,1.4-3h0c0,0,0,0,0,0c0.3,0.1,0.5,0.2,0.7,0.4h0c0.2,0.1,0.4,0.3,0.6,0.4c2.2,2,0.8,5.5,2.4,8.6
			c0,0,0,0,0,0c0.2,0.3,0.4,0.7,0.6,1c0.1-0.5,0.1-0.9,0.2-1.3c0.1-0.4,0.2-0.9,0.3-1.3c0.1-0.4,0.2-0.8,0.3-1.2
			c0.9-3,2.2-5.6,3.3-8.2c0.3-0.6,0.5-1.2,0.7-1.8c0.1-0.3,0.3-0.7,0.4-1.1c0.1-0.4,0.2-0.7,0.3-1.1c0.1-0.4,0.2-0.8,0.3-1.1
			c0.1-0.4,0.1-0.8,0.2-1.2c0.1-1.1,0.4-2.2-0.2-3.1c-0.1-0.1-0.1-0.2-0.2-0.2c-0.2-0.2-0.3-0.3-0.5-0.4c-0.2-0.1-0.3-0.2-0.5-0.2h0
			c-0.2,0-0.3-0.1-0.5-0.1c-0.8,0-1.6,0.6-2.4,1.1c-0.6,0.3-1.2,0.5-1.8,0.8c-0.2,0.1-0.4,0.1-0.6,0.2l0,0c-0.2-0.5-0.2-1-0.2-1.5
			v-0.1c0.2-0.6,0.4-1.1,0.6-1.7c0.2-0.6,0.4-1.2,0.6-1.8v0c0,0,0,0,0,0c0.1-0.2,0.2-0.3,0.3-0.5c0.5-0.9,1.1-1.7,1.5-2.7
			c0.2-0.4,0.3-0.8,0.4-1.2c0-0.2,0.1-0.3,0.1-0.4c0-0.1,0.1-0.2,0.2-0.3c0.2-0.2,0.4-0.2,0.7-0.2c1.1,0,2.8,1.3,3.4,2.2
			C418.6,389.4,419.7,393.1,418.1,397.2z"/>
	</g>
	<path class="st0" d="M394.6,459.1c0,0.1,0,0.2,0,0.4c-0.9,0-1.7-0.2-1.6-1.1C393.1,459,393.8,459.1,394.6,459.1z"/>
	<path class="st0" d="M409.7,389.2c-0.4,1.3-0.9,2.5-1.3,3.6C408.5,391.5,409,390.3,409.7,389.2z"/>
	<g>
		<path class="st0" d="M186.7,419.5c0,0.1,0,0.2,0.1,0.3c0,0.1,0.1,0.2,0.1,0.3C186.9,419.9,186.8,419.7,186.7,419.5z M199.9,461.4
			c-0.7-2.9-1.1-4.9-1.3-5.4c-2-7.5-4.7-17.5-7.2-27.1l0-0.1l0-0.1c-1-2.7-1.7-5.6-2.3-9l0-0.1l0-0.1c-0.8-3.2-1.6-6.3-2.3-9
			c-0.4-1.4-0.8-2.8-1.4-4.2l-1-2.3l-2.2,1.3c-2.2,1.3-2.9,3.4-3.2,5.4c-0.2-0.4-0.4-0.7-0.5-1.1c-0.1-0.2-0.2-0.4-0.3-0.6
			c-0.1-0.3-0.3-0.6-0.4-0.9c-1.4-2.6-2.6-5.1-3.2-7.8l-0.1-0.5c-0.1-0.3-0.2-0.7-0.2-0.9c0.1,0.1,0.3,0.1,0.4,0.2
			c0.2,0.1,0.5,0.3,0.7,0.4c0.7,0.3,1.3,0.5,1.9,0.7c0.2,0,0.5,0.1,0.7,0.2l2.2,0.7l0.6-2.3c0-0.2,0.1-0.3,0.1-0.5
			c0.5-3.1-1.1-5.4-2.4-7.2c-0.7-1-1.3-1.8-1.6-2.8c-0.3-1.2-1.2-2.1-2.3-2.3c-0.1,0-0.2,0-0.3,0c-0.2,0-0.3,0-0.5,0
			c-2.1,0-4.3,2.1-5.1,3.6c-2.4,4.7-2.7,9.1-0.8,13.1c6.6,13.9,11,25,14.3,36.1c2.4,8,7,16.5,13.4,24.6l0.7,0.8h1
			c0.5,0,0.9-0.1,1.2-0.1c0.1,0,0.2-0.1,0.3-0.1l1.8-0.7L199.9,461.4z M197.1,462c-5.7-7.2-10.5-15.5-13-23.9
			c-3.8-12.7-8.8-24.7-14.4-36.5c-1.8-3.9-1-7.7,0.8-11.2c0.5-1,2.1-2.4,3.2-2.4c0.1,0,0.2,0,0.2,0c0.3,0,0.5,0.2,0.6,0.5
			c0,0.1,0.1,0.2,0.1,0.3c0,0.2,0.1,0.4,0.2,0.5c0.1,0.2,0.1,0.4,0.3,0.5c0,0.1,0.1,0.2,0.1,0.2c1.3,2.6,3.9,4.5,3.4,7.8
			c0,0.1,0,0.2,0,0.3c-0.8-0.3-1.6-0.5-2.4-0.8c-0.8-0.3-1.5-0.9-2.2-0.9c-0.3,0-0.7,0.1-1,0.4c-1.4,1-0.9,2.4-0.6,3.8
			c1.2,6.2,5.6,10.7,7.2,17.8c2.5-3.9,0.2-9.2,3.8-11.4c0.1,0.3,0.3,0.6,0.4,1c0.3,0.6,0.5,1.3,0.7,1.9v0c0,0.2,0.1,0.3,0.1,0.5
			c0.1,0.2,0.1,0.3,0.2,0.5c0.1,0.3,0.2,0.7,0.3,1c0.1,0.4,0.2,0.7,0.3,1.1c0.4,1.4,0.8,3,1.2,4.5c0.1,0.4,0.2,0.9,0.4,1.3
			c0,0.1,0,0.3,0.1,0.4c0,0,0,0,0,0c0,0,0,0.1,0,0.1c0,0.1,0,0.2,0.1,0.3c0,0.1,0.1,0.2,0.1,0.3c0,0.1,0,0.2,0.1,0.3
			c0.5,3.1,1.3,6.1,2.3,9c0,0,0,0.1,0,0.1c0.8,3,1.6,6,2.4,9c0.3,1.3,0.7,2.6,1,3.8c0.3,1.1,0.6,2.2,0.9,3.3
			c0.3,1.1,0.6,2.2,0.9,3.2c0.2,0.7,0.4,1.4,0.5,2.1c0.2,0.8,0.4,1.7,0.7,2.5c0.3,1.1,0.6,2.2,0.9,3.2c0,0.1,0,0.1,0.1,0.3
			c0,0.2,0.1,0.5,0.2,0.9c0.1,0.6,0.3,1.3,0.5,2.2c0.1,0.6,0.3,1.3,0.5,2C197.6,461.9,197.4,462,197.1,462L197.1,462z"/>
	</g>
	<path class="st0" d="M185.9,413.6c0.3,2.2,0.6,4.4,0.9,6.5c-0.8-3.2-1.6-6.3-2.3-9c-0.4-1.4-0.8-2.6-1.3-3.9
		c0.1-0.1,0.3-0.2,0.4-0.2C184.7,408.9,184.9,411.6,185.9,413.6z"/>
	<path class="st0" d="M197.8,461.9c-0.7-2.9-1.1-4.8-1.2-5.3c-2-7.4-4.7-17.5-7.2-27.1c0.6,1.6,1.3,3.3,2.1,4.9
		c4,7.8,2.8,17.2,6.5,25.2c0.1,0.3,0.3,0.6,0.4,0.9c0,0,0,0,0,0v0c0.1,0.1,0.1,0.3,0.2,0.4C198.7,461.4,198.3,461.7,197.8,461.9z"/>
	<path class="st0" d="M207.1,486.2c0,0.1-0.1,0.2-0.1,0.3C207,486.4,207.1,486.3,207.1,486.2L207.1,486.2z"/>
	<path class="st0" d="M302.5,461c-0.1,0-0.2,0.1-0.3,0.1C302.3,461.1,302.4,461,302.5,461c0.1,0,0.2-0.1,0.3-0.1
		C302.7,460.9,302.6,460.9,302.5,461z M359.6,520.1c-0.1,0.3-0.1,0.4-0.1,0.5c0-0.1,0.1-0.4,0.2-0.8
		C359.7,519.9,359.6,520,359.6,520.1z"/>
	<path class="st0" d="M330.9,507.6C330.9,507.6,330.9,507.6,330.9,507.6C330.9,507.6,330.9,507.6,330.9,507.6L330.9,507.6z"/>
	<path class="st0" d="M331,507.5c0,0,0,0.1-0.1,0.1l0,0C330.9,507.5,330.9,507.5,331,507.5z"/>
	<path class="st0" d="M332.1,506.9c-0.4,0.2-0.8,0.4-1.1,0.6c0.2-0.4,0.4-0.8,0.6-1.2C331.8,506.5,332,506.7,332.1,506.9z"/>
	<path class="st0" d="M406.4,392.1c0.4-1,0.8-2.1,1.2-3.2v-0.3l0.2-0.3l0.1-0.3l0.2-0.2c0.1-0.2,0.3-0.4,0.4-0.6
		c0.6-1,1.2-1.9,1.4-2.8c0.2-1,0.8-1.6,1.1-1.9c0.5-0.4,1.2-0.7,1.9-0.7c0.5-2.6,0.9-5.5,2-9.3c11.1-34.8,8-66.7-3.2-98.3
		c-2-5.7-4.3-11-6.7-15.3c-3.9-6.8-24.8-22.9-30.6-28.3c0,0,0,0-0.1,0c-6.3-3.8-11.9-9.1-19.7-9.7c-2.2-0.2-5.7-1.2-7.7-2.3
		c-3.5-1.8-7.1-3.4-10.8-5c-7.2-3.2-23.4-4.5-23.6-4.5c-9.3-0.5-31.8-0.1-31.8-0.1c-1.7,0-39.9,9.3-41.6,9.7
		c-13.1,2.8-26.7,22.1-25.4,22.2c2.4,0.2,10.6-8,26.4-10.1c14.6-1.9,70.1,9.5,62.9,9.4c-1,0-49.9-5.9-64-3.9
		c-31.6,4.6-39.9,16.7-39.2,18.5c0.5,1.2,3.7,6.1,13.1,4.1c2.8-0.6,4.1-1.5,19.7-4.2c13.2-2.3,28.9-3.9,32.7-0.3
		c0.3,0.3,0.1,0.8-0.3,0.8c-3.9,0.1-20.5-1.5-52,7.3c-0.5,0.1-3.8-0.4-3.5,0.1c3.9,6.9,11.1,5.6,11.2,5.6c6.2-0.8,7.8-0.8,5,0.4
		c-5.4,2.4-9,2.8-16-0.7c-5.1-2.6-8.3-9.8-13.3-9.4c-3.9,0.4-9.1,2.2-13.6,6.2c0,0,0,0,0,0c-36.3,25.7-16.6,90.1-14.6,94.8
		c3.2,7.8,4.6,15.8,6.2,23.9c0,0-0.1,1.2-0.3,2.4c0.1,0,0.2,0,0.3,0c1.1,0.3,2,1.1,2.3,2.3c0.3,0.9,0.9,1.8,1.6,2.8
		c1.3,1.8,2.9,4.1,2.4,7.2c0,0.2,0,0.3-0.1,0.5l-0.6,2.3l-2.2-0.7c-0.2-0.1-0.4-0.2-0.7-0.2c-0.6-0.2-1.3-0.4-1.9-0.7
		c-0.3-0.1-0.5-0.3-0.7-0.4c-0.1-0.1-0.3-0.1-0.4-0.2c0,0.3,0.1,0.7,0.2,0.9l0.1,0.5c0.5,2.7,1.8,5.2,3.2,7.8
		c0.1,0.3,0.3,0.6,0.4,0.9c0.1,0.2,0.3,0.4,0.3,0.6c0.3,0.5,0.5,0.9,0.5,1.1c0.3-2,1-4.1,3.2-5.4l2.2-1.3l1,2.3
		c0.6,1.5,1.1,2.8,1.4,4.2c0.7,2.7,1.5,5.8,2.3,9l0,0.1l0,0.1c0.6,3.4,1.4,6.4,2.3,9l0,0.1l0,0.1c2.5,9.6,5.2,19.6,7.2,27.1
		c0.1,0.5,0.6,2.5,1.3,5.4l0.4,1.9l-1.8,0.7c-0.1,0-0.2,0.1-0.3,0.1c3.3,14.6,10.5,45.4,12.9,49.6c45.7,78,79.7,80,84,80
		c22.7,0,42.8,0,88.6-85.9v0c5.4-11.8,9.2-35.5,10.4-46H392l0.2-1c-0.9-0.6-1.2-1.5-1.3-1.8l-0.1-0.4l0.1-0.4c0-0.1,0.1-0.3,0.1-0.4
		v-1.8h0.7c1.3-3.5,1.5-7.3,1.8-11.3c0.3-4.6,0.7-9.4,2.7-14c2.9-6.6,3.6-13.7,3.9-20.3l0-0.5l0.2-0.4l0.4-0.9l2.3-5.1l0.8-2.1l2,1
		l0.1,0.1h0c2.3,0.9,3.2,2.6,3.6,4.2c0.3-0.8,0.7-1.6,1-2.3c1.2-2.7,2.3-5.3,2.7-8l0.1-0.5c0-0.3,0.1-0.8,0.1-1
		c-0.2,0.1-0.4,0.2-0.5,0.3c-0.2,0.2-0.5,0.3-0.7,0.4c-0.7,0.3-1.3,0.6-1.9,0.8c-0.3,0.1-0.5,0.2-0.7,0.3l-3,1.2v-3
		c-0.2-0.6-0.2-1.2-0.3-1.9v-0.4L406.4,392.1z M207,486.5c0-0.1,0.1-0.2,0.1-0.3l0,0C207.1,486.3,207,486.4,207,486.5z M334.3,517
		c-2.6,3.3-6.8,9.4-9.7,10.8c-7.3,3.5-24.3,12.7-32.5,11c-0.8-0.2-25.8-3.3-32.1-17.4c-0.1-0.2-0.2-0.5-0.3-0.7
		c-0.1-0.2-0.2-0.5-0.3-0.7c-0.3-0.5-0.6-1.1-0.9-1.6c-0.9-1.5-1-6-0.5-8.9c0.2-1.1,1.4-1.7,2.4-1.2c0.5,0.3,1.1,0.6,1.7,0.9
		c0.4,0.2,0.8,0.4,1.1,0.7c5.9,3.3,16.9,9.3,30.3,9.5c18.8,0.4,22.3-4,31.2-8.3c0.8-0.4,3-1.3,5.1-2.1c2.7-1,5.5,1.1,5.2,3.9
		C335,514.8,334.6,516.5,334.3,517z M263.2,500.6c0.9-0.4,3.1-1,4.2-1.2c0.4-0.1,0.8-0.1,1.3-0.1c12,0.6,24.1,1.4,36.1,1.4
		c3,0,6.1-0.1,9.1-0.2c4-0.1,8-0.5,11.7,0.8c0,0.2,0,0.4,0,0.5c0,0,0,0,0,0c-0.1,0.9-0.7,1.3-1.3,1.2c-10.8-1.7-21.5,0.8-32.3,1.1
		c-4.2,0.1-8.5-0.5-12.7-1.2c-4.4-0.8-8.7-1.3-13.1,0.3c-1.6,0.5-3.1,1-3.9,0C261.8,502.3,262.2,501,263.2,500.6z M330.9,507.6
		c0,0,0.1,0,0.1-0.1c0.2-0.4,0.4-0.8,0.6-1.2c0.2,0.2,0.3,0.3,0.5,0.5c-0.4,0.2-0.8,0.4-1.1,0.6
		C330.9,507.5,330.9,507.6,330.9,507.6C330.9,507.6,330.9,507.6,330.9,507.6C330.9,507.6,330.9,507.6,330.9,507.6z M337.1,503.8
		c-2.4,1-3.3-0.4-4.6-2.2c-0.1-0.2-0.2-0.3-0.3-0.4c-0.1-0.2-0.3-0.3-0.4-0.4c-0.1-0.1-0.3-0.2-0.4-0.3c-0.3-0.2-0.6-0.4-0.9-0.5
		c-0.2-0.1-0.3-0.2-0.5-0.2c-1.6-0.5-3.6-0.5-5.2-0.6c-5.2-0.4-10.2-1.4-15.2-2.8c-4.2-1.2-8.3-1.9-12.4-1.2c-0.3,0-0.5,0.1-0.8,0.1
		c0,0-0.1,0-0.2,0c-1.1,0.3-5.3,2.2-6.4,1.7c-0.8-0.4-6-1.8-6.9-1.6l-3,0.2c-5.4,1.4-8.2,1.9-12.9,3.1c-0.1,0.1-5,1.6-6.9,2.2
		c-1.9,0.5-5.1,1.5-6.1-0.6c0.7-1,11.8-4.2,14-4.4c2.2-0.2,13.6-3.3,15.4-2.8c1.8,0.5,5.1,2.1,7.3,1.8c2.1-0.3,8.1-2,11-1.8
		c2.9,0.2,17.2,3.7,20.4,4.3c3.2,0.6,11.8,0.5,13.6,1.2c0.8,0.3,1.7,0.7,2.5,0.9C339.1,500.6,339.9,502.6,337.1,503.8z M359.5,520.6
		c0-0.1,0-0.2,0.1-0.5c0-0.1,0.1-0.2,0.1-0.3C359.7,520.2,359.6,520.5,359.5,520.6z M394.6,419.1c-0.3,5.6-1.5,11.1-2.3,16.7v0.2
		c-0.3,1.3-5.2,25-6.2,33.5c-0.6,4.2-24,43.3-28,45c-0.3,0.1-0.7,0.3-1,0.4c-1.7,0.5-4.4,0.1-4.5,0.1c-0.4-0.1-0.5,0.1-1.6-1.1
		c-0.3-0.3-3.9-12.9-7.7-16.9c-5.6-5.8-13.1-11.8-18.5-15.4c-3.7-3-7.7-5.8-11.3-7.7c0.2-1.5,0.4-3.1,0.5-4.7
		c0.8-6.7-3.2-10.4-9-9.1c-0.4,0.1-0.8,0.2-1.2,0.4c-0.2,0.1-0.5,0.1-0.6,0.2c-0.1,0-0.2,0.1-0.3,0.1c-0.1,0-0.2,0.1-0.3,0.1
		c-0.1,0-0.2,0.1-0.3,0.1c-0.1,0-0.2,0.1-0.3,0.1c-0.2,0.1-0.3,0.2-0.5,0.3c-0.3,0.2-0.7,0.4-1.1,0.6c-0.7,0.4-1.3,0.9-1.8,1.5
		c-0.5,0.5-1,1-1.5,1.4c-0.4,0.3-0.8,0.5-1.1,0.7c-0.1,0.1-0.3,0.1-0.4,0.2c-1.2,0.6-2.4,0.8-3.6,0.7c-0.1,0-0.3,0-0.4,0
		c-0.3,0-0.6-0.1-0.9-0.1c-0.2,0-0.3-0.1-0.5-0.1c-0.3-0.1-0.6-0.2-0.9-0.3c-0.2-0.1-0.3-0.1-0.5-0.2c-0.3-0.1-0.5-0.2-0.7-0.3
		c-0.3-0.1-0.5-0.2-0.8-0.4c-0.2-0.1-0.4-0.2-0.6-0.3c-0.1,0-0.1-0.1-0.2-0.1c-0.4-0.2-0.8-0.5-1.3-0.7c-0.4-0.3-0.8-0.5-1.3-0.7
		c-0.2-0.1-0.3-0.2-0.5-0.3c-0.3-0.2-0.7-0.3-1-0.5c-0.5-0.3-1.1-0.5-1.6-0.6c-0.2-0.1-0.4-0.1-0.5-0.2c-1.8-0.5-3.6-0.5-5.7,0.4
		c-0.1,0-0.3,0.1-0.4,0.2c0,0-0.1,0-0.1,0c-0.5,0.3-1.1,0.1-1.7-0.3c-0.1-0.1-0.3-0.2-0.4-0.3c-0.1,0-0.1-0.1-0.2-0.2
		c-0.1-0.1-0.2-0.2-0.2-0.3c-1.9-2-3.6-6.1-3.1-8.9c0.5-3.4,2.2-6.3,4.4-9c1.1-1.4,2.6-3.3,0.6-4.5c-1.7-1-3.3,0.9-4.1,2.5
		c-1.9,3.8-3.6,7.7-5.4,11.6c-1.7,3.6-0.6,6.4,2,9.2c2.1,2.2,4.5,3.6,6.2,4.7c0.1,0.1,0.3,0.2,0.5,0.3c2.2,0.9,6.2-0.8,5.5,0.8
		c1.1,0.2,1,0.8-2.1,2.6c-3.1,1.8-13.1,9.5-17.4,13.9l-0.1,0.1c-2.2,1.7-4.5,5.1-9.6,13c0,0.1-0.1,0.2-0.2,0.3
		c-1.1,1.8-3.6,5.5-6.5,8.7c0,0,0,0.1,0,0.1c-2.8,3-6,5.4-9,5.1c-5.5-0.7-7.5-3.6-16.6-20c-2.8-5-5.8-10-13.8-39.6
		c-3.6-13.5-10.2-28.3-14.5-56.7c-1.8-12.3,0.9-22.7,2.5-28.3c3.4-11.9,9-32.1,10.6-36.4c3.2-8.2,16.5-22.9,20.3-27.1l0,0
		c0,0,0.1-0.3,0.3-0.6c0,0,0,0,0-0.1c1.1-3.1,5.2-16.4,5.3-16.5c5.2-9.2,40.6,22.3,54.4,25.2c21.6,4.5,40.1-2.6,61.1,7.5
		c29.1,14,28.9,23,35,27.2c0.3,0.3,0.7,0.5,1.1,0.8c1.1,0.8,2.1,1.6,3.1,2.5c0.4,0.3,0.7,0.6,1,0.9c0.3,0.3,0.6,0.6,0.9,0.9
		c8,7.9,12.1,18,12.4,29.6C396.5,393.7,395.4,406.4,394.6,419.1z"/>
	<polygon class="st0" points="200.7,272.8 200.7,272.9 200.5,272.6 	"/>
	<path class="st0" d="M260.5,513.9C260.5,513.9,260.5,514,260.5,513.9C260.5,514,260.5,513.9,260.5,513.9z"/>
	<g>
		<path class="st0" d="M415.2,393.3c-0.1-0.1-0.1-0.2-0.2-0.2c-0.1-0.1-0.3-0.3-0.6-0.4c-0.2-0.1-0.3-0.2-0.5-0.2h0
			c-0.2,0-0.3-0.1-0.5-0.1c-0.8,0-1.6,0.6-2.4,1.1c-0.6,0.3-1.2,0.5-1.8,0.8c-0.2,0.1-0.4,0.2-0.6,0.3c-0.1,0-0.1,0,0,0
			c-0.2-0.5-0.2-1-0.2-1.5c0,0,0-0.1,0-0.1l0,0c0,0,0,0,0,0c0.2-0.5,0.4-1.1,0.6-1.7c0.2-0.6,0.4-1.2,0.6-1.8v0c0,0,0,0,0,0
			c0,0,0,0,0,0c0.1-0.2,0.2-0.3,0.3-0.5c0.5-0.9,1.1-1.7,1.5-2.7c0.2-0.4,0.3-0.8,0.4-1.2c0-0.2,0.1-0.3,0.2-0.4
			c0-0.1,0.1-0.2,0.2-0.3c0.2-0.8,0.4-1.6,0.5-2.4c-0.7,0-1.4,0.3-1.9,0.7c-0.4,0.3-0.9,0.9-1.1,1.9c-0.2,0.9-0.8,1.8-1.4,2.8
			c-0.1,0.2-0.3,0.4-0.4,0.6l-0.2,0.2l-0.1,0.3l-0.2,0.3v0.3c-0.4,1.1-0.8,2.2-1.2,3.2l-0.1,0.4v0.4c0,0.7,0.1,1.3,0.3,1.9v3l3-1.2
			c0.2-0.1,0.5-0.2,0.7-0.3c0.6-0.2,1.3-0.5,1.9-0.8c0.2-0.1,0.5-0.3,0.7-0.4c0.2-0.1,0.4-0.2,0.5-0.3c0,0.2,0,0.7-0.1,1l-0.1,0.5
			c-0.3,2.7-1.5,5.3-2.7,8c-0.3,0.8-0.7,1.5-1,2.3c-0.4-1.6-1.4-3.3-3.6-4.2h0l-0.1-0.1l-2-1l-0.8,2.1l-2.3,5.1l-0.4,0.9l-0.2,0.4
			l0,0.5c-0.3,6.7-1,13.7-3.9,20.3c-2,4.5-2.4,9.3-2.7,14c-0.3,4-0.6,7.7-1.8,11.3h-0.7v1.8c0,0.1-0.1,0.3-0.1,0.4l-0.1,0.4l0.1,0.4
			c0.1,0.4,0.3,1.2,1.3,1.8l-0.2,1h2.3c0.1-0.8,0.2-1.5,0.3-2.2c0-0.1,0-0.1,0-0.2c0,0,0-0.1,0-0.2h-0.1c-0.2,0-0.3,0-0.4,0
			c0,0-0.1,0-0.1,0c-0.1,0-0.2,0-0.3,0c-0.2-0.1-0.4-0.1-0.5-0.3c0,0,0,0,0,0c-0.1-0.1-0.2-0.2-0.2-0.3c0-0.1,0-0.1,0-0.2
			c0-0.1,0-0.3,0.1-0.5c0.1-0.3,0.3-0.6,0.4-0.9c1.5-4.1,1.8-8.5,2.2-12.9c0.3-4.4,0.7-8.7,2.5-12.7c3-6.7,3.8-13.7,4.1-20.9
			c0,0,0,0.1,0,0.1c0.5-1,0.9-2,1.3-3c0.5-1,0.9-2,1.3-3c0,0,0,0,0,0h0c0,0,0,0,0,0c0.3,0.1,0.5,0.2,0.7,0.4h0
			c0.2,0.1,0.4,0.3,0.6,0.4c2.2,2,0.8,5.5,2.4,8.6c0,0,0,0,0,0c0.2,0.3,0.7,0.2,0.8-0.2c0,0,0-0.1,0-0.2c0.1-0.4,0.2-0.9,0.3-1.3
			c0.1-0.4,0.2-0.8,0.3-1.2c0.9-3,2.2-5.6,3.3-8.2c0.3-0.6,0.5-1.2,0.7-1.8c0.1-0.3,0.3-0.7,0.4-1.1c0.1-0.4,0.2-0.7,0.3-1.1
			c0.1-0.4,0.2-0.8,0.3-1.1c0.1-0.4,0.1-0.8,0.2-1.2C415.5,395.3,415.8,394.2,415.2,393.3z M359.6,520.1c-0.1,0.3-0.1,0.4-0.1,0.5
			c0-0.1,0.1-0.4,0.2-0.8C359.7,519.9,359.6,520,359.6,520.1z M331.6,506.3c-0.2,0.4-0.4,0.8-0.6,1.2c0.4-0.2,0.8-0.4,1.1-0.6
			C332,506.7,331.8,506.5,331.6,506.3z M330.9,507.6C330.9,507.6,330.9,507.6,330.9,507.6C330.9,507.6,330.9,507.6,330.9,507.6
			c0.1,0,0.1,0,0.1-0.1C330.9,507.5,330.9,507.5,330.9,507.6z M302.5,461c-0.1,0-0.2,0.1-0.3,0.1C302.3,461.1,302.4,461,302.5,461
			c0.1,0,0.2-0.1,0.3-0.1C302.7,460.9,302.6,460.9,302.5,461z M248.7,256.8C248.7,256.8,248.8,256.8,248.7,256.8L248.7,256.8z
			 M207.1,486.2c0,0.1,0,0.2-0.1,0.3C207,486.4,207.1,486.3,207.1,486.2L207.1,486.2z M199.9,461.4c-0.7-2.9-1.1-4.9-1.3-5.4
			c-2-7.5-4.7-17.5-7.2-27.1l0-0.1l0-0.1c-1-2.7-1.7-5.6-2.3-9l0-0.1l0-0.1c-0.8-3.2-1.6-6.3-2.3-9c-0.4-1.4-0.8-2.8-1.4-4.2l-1-2.3
			l-2.2,1.3c-2.2,1.3-2.9,3.4-3.2,5.4c0.3,2.1,3.7-5,4.3-3.6c0.1,0.3,0.3,0.6,0.4,1c0.3,0.6,0.5,1.3,0.7,1.9v0
			c0,0.2,0.1,0.3,0.1,0.5c0,0.2,0.1,0.3,0.1,0.5c0.1,0.3,0.2,0.7,0.3,1c0.1,0.4,0.2,0.7,0.3,1.1c0.4,1.4,0.8,3,1.2,4.5
			c0.1,0.4,0.2,0.9,0.4,1.3c0,0.1,0,0.3,0.1,0.4c0,0,0,0,0,0c0,0,0,0.1,0,0.1c0,0.1,0,0.2,0.1,0.3c0,0.1,0,0.2,0.1,0.3
			s0,0.2,0.1,0.3c0.7,2.9,1.5,5.9,2.3,9c0,0,0,0.1,0,0.1c0.8,3,1.6,6,2.4,9c0.3,1.3,0.7,2.6,1,3.8c0.3,1.1,0.6,2.2,0.9,3.3
			c0.3,1.1,0.6,2.2,0.9,3.2c0.2,0.7,0.4,1.4,0.5,2.1c0.2,0.8,0.4,1.7,0.7,2.5c0.3,1.1,0.6,2.2,0.9,3.2c0,0.1,0,0.1,0.1,0.3
			c0,0.2,0.1,0.5,0.2,0.9c0.1,0.6,0.3,1.3,0.5,2.2c0.1,0.6,0.3,1.2,0.5,2v0c0.2,0.7,0.3,1.4,0.5,2.1c0.1,0,0.2-0.1,0.3-0.1l1.8-0.7
			L199.9,461.4z M178.3,391c-0.7-1-1.3-1.8-1.6-2.8c-0.3-1.2-1.2-2.1-2.3-2.3c-0.1,0-0.2,0-0.3,0c-0.1,0.8-0.2,1.7-0.3,2.2
			c0.3,0,0.5,0.2,0.6,0.5c0,0.1,0.1,0.2,0.1,0.3c0.1,0.2,0.1,0.3,0.2,0.5c0.1,0.2,0.1,0.4,0.3,0.5c0,0.1,0.1,0.2,0.1,0.2
			c1.6,2.8,5.1,5.6,4.5,8.9c0.4,0.8-5.9-2.7-6.2-0.2c-0.3,2,2.9,7.3,4.5,10.1c-0.1-0.3-0.3-0.6-0.4-0.9c-1.4-2.6-2.6-5.1-3.2-7.8
			l-0.1-0.5c-0.1-0.3-0.2-0.7-0.2-0.9c0.1,0.1,0.3,0.1,0.4,0.2c0.2,0.1,0.5,0.3,0.7,0.4c0.7,0.3,1.3,0.5,1.9,0.7
			c0.2,0,0.5,0.1,0.7,0.2l2.2,0.7l0.6-2.3c0-0.2,0.1-0.3,0.1-0.5C181.3,395.1,179.6,392.8,178.3,391z"/>
		<path class="st0" d="M402.1,409.9c0,0,0.1,0,0.1,0l0.1-1.7C402,409.3,401.9,409.8,402.1,409.9z"/>
	</g>
	<path class="st0" d="M291,491.7"/>
	<path class="st0" d="M339.3,495.3"/>
	<path class="st0" d="M248.7,498c-1.1,1.8-3.6,5.5-6.5,8.7c1-1.5,2.6-3.7,4.9-6.7C247.6,499.2,248.2,498.6,248.7,498z"/>
	<g>
		<path class="st0" d="M273.2,378.7c-5.4-0.8-6.4-4.5-19.9-5.3c-16.2-1-21.6,0-23.5,0c-2.1,0-3.9,0.4-4.9,2.5
			c-0.6,1.3-0.3,2.6,1,3.1c1.9,0.9,3.7,3.3,6.1,0.9c1.2-1.2,2.8-1.5,4.5-1.4c1.9,0.1,3.7,0.9,4.1,2.8c0.4,2.2-1.8,2.3-3.3,2.7
			c-2.4,0.7-4.9,1.2-7.1,2.2c-3.8,1.7-8.7,4.7-8,8.2c0.2,1.1,0.3,2.2,0.3,3.2c-0.1,5,3.3,9.5,8.2,10.3c1.5,0.2,3,0.2,4.6-0.5
			c2.7-1,4.2-2.8,1.6-3.8c-2.4-1-4.3-3.1-5.3-4.4c-0.5-0.7-0.6-1.3-0.4-1.9c1.8-2.4,4.4-5.3,7.2-4.4c1.4,0.4,1.3,1.6,1,2.9
			c-0.3,0.8-0.5,1.8-0.5,2.7c0,4.3,3.5,7.7,7.7,7.7s7.7-3.5,7.7-7.7c0-0.6-0.1-1.2-0.2-1.7c0.3-2.6,4.3-2.6,6.5-1.3
			c18.1,12.8,0.5,6.1-4.8,8.4c-2,0.9-4.9,4.8-3.9,7.2c1.3,2.9,18.7,8.8,21.6,7.7c0.3-0.1,0.8-0.3,0.9-0.5c2-4.2,6.4-7,6.4-12.5
			c0-4.5-0.8-9.1,1.2-13.6C285.3,384.9,281.1,378.9,273.2,378.7z M265.5,394.1c-0.3,0.3-0.9,0.3-1.2,0c-0.1-0.1-7.3-7.2-17.4-7
			c-6.7,0.2-13.1,3.6-19,10.3c-0.2,0.2-0.4,0.3-0.6,0.3c-0.2,0-0.4-0.1-0.6-0.2c-0.3-0.3-0.4-0.8-0.1-1.2c6.3-7,13.1-10.7,20.3-10.8
			c10.7-0.3,18.3,7.2,18.6,7.5C265.8,393.2,265.8,393.7,265.5,394.1z"/>
	</g>
	<path class="st0" d="M347.3,383.8c-1.1-0.5-2.8-0.6-2.4-2.2c0.3-1.6,2-1,3.2-1.1c4.1-0.1,8.2-0.1,12.3-0.2c1.5-0.1,2.8-0.6,3.2-2.3
		c0.3-1.5-0.2-3.4-1.6-3.5c-3.7-0.3-22.2-5.4-28-3.8c-9.6,2.6-18.9,5.8-28.4,8.7c-3,1-3.5,3.3-3.3,5.9c0.2,2.7,1.6,3.6,4.3,3.3
		c3.4-0.3,2.6,1.7,1.7,3.7c-2.6,5.6-2.9,11.2,1.6,15.8c4.9,5.1,11.9,5.6,18.4,7.3c3.6,1,3.1-2.5,4.6-3.6c1.9-1.3,6.3-0.3,5.6-3.9
		c-0.4-1.7-4.2-2.7-6.5-4.1c-0.3-0.2-0.6-0.3-0.9-0.5c-2.2-1.2-7.3-1.2-6.3-4.2c0.9-2.6,7.3-12.5,8.6-5.5c0.1,0.7-0.3,1.3-0.3,2.1
		c0,4.3,3.5,7.7,7.7,7.7c4.3,0,7.8-3.5,7.8-7.7c0-1-0.6-2.6-0.6-2.8c-0.3-2,3-0.3,3.9,0.2c0.2,0.1,1.2,1.3,1.2,4.9
		c-0.5,1.6-0.6,4.3-0.3,5.5c0.3,2.2,2.2,3,3.4,2.2c3.6-2.4,7.6-2.3,11.7-2.3C363.8,393.2,356.2,387.8,347.3,383.8z M357.8,392.7
		c-0.3,0.4-0.8,0.5-1.2,0.3c-22.2-14.3-34.6,2.5-35.1,3.3c-0.2,0.2-0.4,0.3-0.7,0.3c-0.2,0-0.3,0-0.5-0.2c-0.4-0.3-0.5-0.8-0.2-1.2
		c0.1-0.2,13.9-18.9,37.5-3.7C357.9,391.8,358,392.3,357.8,392.7z"/>
</g>
<g id="Layer_2">
</g>
</svg>
